<svg xmlns="http://www.w3.org/2000/svg" xmlns:xlink="http://www.w3.org/1999/xlink" viewBox="0 0 243.81 184.62"><defs><style>.cls-1{isolation:isolate;}.cls-2{fill:url(#linear-gradient);}.cls-3{fill:#0065ff;}.cls-4{fill:#fff;}.cls-5{fill:#dfe1e5;opacity:0.63;}.cls-13,.cls-5{mix-blend-mode:multiply;}.cls-6{fill:#4c9aff;}.cls-7{fill:#ebecf0;}.cls-8{fill:#b2d4ff;}.cls-10,.cls-9{fill:none;}.cls-9{stroke:#c1c7d0;}.cls-10,.cls-12,.cls-9{stroke-miterlimit:10;stroke-width:2px;}.cls-10{stroke:#0065ff;}.cls-11,.cls-12{fill:#57d9a3;}.cls-12{stroke:#00875a;}.cls-13{fill:url(#linear-gradient-2);}.cls-14{fill:#344563;}.cls-15{fill:#a5adba;}</style><linearGradient id="linear-gradient" x1="14.8" y1="199.42" x2="229.01" y2="-14.8" gradientUnits="userSpaceOnUse"><stop offset="0" stop-color="#c1c7d0"/><stop offset="1" stop-color="#fafbfc"/></linearGradient><linearGradient id="linear-gradient-2" y1="40.39" x2="243.81" y2="40.39" gradientUnits="userSpaceOnUse"><stop offset="0" stop-color="#ebecf0" stop-opacity="0.1"/><stop offset="1" stop-color="#ebecf0"/></linearGradient></defs><title>JIRA</title><g class="cls-1"><g id="Layer_2" data-name="Layer 2"><g id="Software"><rect class="cls-2" width="243.81" height="184.62"/><rect class="cls-3" y="19.67" width="32.37" height="164.95"/><path id="_Compound_Path_" data-name="&lt;Compound Path&gt;" class="cls-4" d="M130.84,159.77H49.5a2.61,2.61,0,0,1-2.61-2.61V46.67a2.61,2.61,0,0,1,2.61-2.61h81.33a2.61,2.61,0,0,1,2.61,2.61V157.16A2.61,2.61,0,0,1,130.84,159.77Zm96.86-2.61V46.67a2.61,2.61,0,0,0-2.61-2.61H143.75a2.61,2.61,0,0,0-2.61,2.61V157.16a2.61,2.61,0,0,0,2.61,2.61h81.33A2.61,2.61,0,0,0,227.7,157.16Z"/><path class="cls-3" d="M225.08,44.06H143.75a2.61,2.61,0,0,0-2.61,2.61v64.5h25.32a1.27,1.27,0,0,1,1.27,1.27v29.9a1.27,1.27,0,0,1-1.27,1.27H141.14v13.54a2.61,2.61,0,0,0,2.61,2.61h81.33a2.61,2.61,0,0,0,2.61-2.61V46.67A2.61,2.61,0,0,0,225.08,44.06Z"/><path class="cls-5" d="M133.45,111.18H90.52a1.27,1.27,0,0,0-1.27,1.27v29.9a1.27,1.27,0,0,0,1.27,1.27h42.93Z"/><path class="cls-3" d="M167.73,142.35v-29.9a1.27,1.27,0,0,0-1.27-1.27H141.14v32.45h25.32A1.27,1.27,0,0,0,167.73,142.35Z"/><path class="cls-5" d="M167.73,142.35v-29.9a1.27,1.27,0,0,0-1.27-1.27H141.14v32.45h25.32A1.27,1.27,0,0,0,167.73,142.35Z"/><rect class="cls-6" x="145.18" y="48.11" width="78.48" height="32.45" rx="1.27" ry="1.27"/><rect class="cls-6" x="145.18" y="84.39" width="78.48" height="32.45" rx="1.27" ry="1.27"/><rect class="cls-7" x="50.95" y="48.11" width="78.48" height="32.45" rx="2.61" ry="2.61"/><circle class="cls-4" cx="118.28" cy="68.65" r="5.66"/><circle class="cls-8" cx="213.18" cy="68.65" r="5.66"/><circle class="cls-8" cx="213.18" cy="105.57" r="5.66"/><line class="cls-9" x1="56.55" y1="54.93" x2="108.35" y2="54.93"/><line class="cls-9" x1="56.55" y1="61.69" x2="108.35" y2="61.69"/><line class="cls-9" x1="56.55" y1="72.36" x2="75.04" y2="72.36"/><line class="cls-10" x1="151.01" y1="54.93" x2="202.81" y2="54.93"/><line class="cls-10" x1="151.01" y1="61.69" x2="202.81" y2="61.69"/><line class="cls-10" x1="151.01" y1="72.36" x2="169.49" y2="72.36"/><line class="cls-10" x1="151.01" y1="91.2" x2="202.81" y2="91.2"/><line class="cls-10" x1="151.01" y1="97.95" x2="202.81" y2="97.95"/><rect id="_Rectangle_" data-name="&lt;Rectangle&gt;" class="cls-11" x="98.43" y="102.77" width="78.48" height="32.45" rx="1.27" ry="1.27"/><circle class="cls-4" cx="166.06" cy="124.25" r="5.66"/><line class="cls-12" x1="104.9" y1="109.54" x2="156.7" y2="109.54"/><line class="cls-12" x1="104.9" y1="116.3" x2="156.7" y2="116.3"/><line class="cls-12" x1="104.9" y1="126.97" x2="123.39" y2="126.97"/><path class="cls-13" d="M243.81,36.75c-69.18-6-108.85.91-132.52,8.71-4.66,1.53-10.66,3.75-20.52,6.35C55.15,61.23,22.18,61.75,0,60.75V19.67H243.81Z"/><rect class="cls-7" width="243.81" height="19.67"/><circle class="cls-14" cx="15.69" cy="9.76" r="5.11"/><circle class="cls-15" cx="32.37" cy="9.76" r="5.11"/><circle class="cls-3" cx="49.05" cy="9.76" r="5.11"/></g></g></g></svg>